<svg height="25" viewBox="0 0 512 512" fill="#ffffff" width="20" xmlns="http://www.w3.org/2000/svg"><path d="m386.867188 323.296875-21.191407 21.191406-32.269531-32.269531c53.941406-64.683594 50.578125-161.308594-10.105469-221.996094-64.261719-64.257812-168.820312-64.257812-233.078125 0-64.257812 64.257813-64.257812 168.816406 0 233.074219 60.636719 60.636719 157.238282 64.109375 221.996094 10.109375l32.269531 32.269531-21.1875 21.1875 125.132813 125.136719 63.566406-63.566406zm-275.453126-21.1875c-52.578124-52.574219-52.578124-138.121094 0-190.699219 52.582032-52.582031 138.125-52.566406 190.695313 0 52.578125 52.578125 52.578125 138.125 0 190.699219-52.574219 52.574219-138.121094 52.574219-190.695313 0zm254.261719 84.753906 21.191407-21.1875 82.753906 82.757813-21.1875 21.1875zm0 0"/><path d="m131.847656 206.761719h29.964844v29.964843h-29.964844zm0 0"/><path d="m161.8125 176.796875h29.964844v29.964844h-29.964844zm0 0"/><path d="m191.777344 206.761719h29.964844v29.964843h-29.964844zm0 0"/><path d="m221.742188 176.796875h29.964843v29.964844h-29.964843zm0 0"/><path d="m251.707031 206.761719h29.96875v29.964843h-29.96875zm0 0"/><path d="m386.214844 131.035156 27.589844-11.6875c-11.335938-26.753906-27.550782-50.785156-48.195313-71.433594-20.105469-20.105468-44.140625-36.347656-71.433594-47.914062l-11.6875 27.78125c23.726563 10.050781 44.566407 23.957031 61.929688 41.324219 17.910156 17.90625 31.972656 38.742187 41.796875 61.929687zm0 0"/><path d="m27.78125 282.488281-27.78125 11.6875c11.566406 27.292969 27.808594 51.328125 47.914062 71.429688 20.648438 20.648437 44.679688 36.863281 71.433594 48.199219l11.6875-27.589844c-23.183594-9.824219-44.023437-23.886719-61.933594-41.796875-17.363281-17.367188-31.269531-38.203125-41.320312-61.929688zm0 0"/></svg>